<svg id="visual" viewBox="0 0 960 50" width="960" height="50" xmlns="http://www.w3.org/2000/svg" xmlns:xlink="http://www.w3.org/1999/xlink" version="1.1"><path d="M0 37L22.8 35C45.7 33 91.3 29 137 25.2C182.7 21.3 228.3 17.7 274 16C319.7 14.3 365.3 14.7 411.2 17C457 19.3 503 23.7 548.8 27.8C594.7 32 640.3 36 686 35.8C731.7 35.7 777.3 31.3 823 27.2C868.7 23 914.3 19 937.2 17L960 15L960 0L937.2 0C914.3 0 868.7 0 823 0C777.3 0 731.7 0 686 0C640.3 0 594.7 0 548.8 0C503 0 457 0 411.2 0C365.3 0 319.7 0 274 0C228.3 0 182.7 0 137 0C91.3 0 45.7 0 22.8 0L0 0Z" fill="#abc3f0"></path><path d="M0 44L22.8 43.5C45.7 43 91.3 42 137 40.3C182.7 38.7 228.3 36.3 274 33.7C319.7 31 365.3 28 411.2 30.2C457 32.3 503 39.7 548.8 42.8C594.7 46 640.3 45 686 42.8C731.7 40.7 777.3 37.3 823 35.7C868.7 34 914.3 34 937.2 34L960 34L960 13L937.2 15C914.3 17 868.7 21 823 25.2C777.3 29.3 731.7 33.7 686 33.8C640.3 34 594.7 30 548.8 25.8C503 21.7 457 17.3 411.2 15C365.3 12.7 319.7 12.3 274 14C228.3 15.7 182.7 19.3 137 23.2C91.3 27 45.7 31 22.8 33L0 35Z" fill="#7faae9"></path><path d="M0 51L22.8 51C45.7 51 91.3 51 137 51C182.7 51 228.3 51 274 51C319.7 51 365.3 51 411.2 51C457 51 503 51 548.8 51C594.7 51 640.3 51 686 51C731.7 51 777.3 51 823 51C868.7 51 914.3 51 937.2 51L960 51L960 32L937.2 32C914.3 32 868.7 32 823 33.7C777.3 35.3 731.7 38.7 686 40.8C640.3 43 594.7 44 548.8 40.8C503 37.7 457 30.3 411.2 28.2C365.3 26 319.7 29 274 31.7C228.3 34.3 182.7 36.7 137 38.3C91.3 40 45.7 41 22.8 41.5L0 42Z" fill="#5f8acf"></path></svg>