<svg id="visual" viewBox="0 0 960 540" width="960" height="540" xmlns="http://www.w3.org/2000/svg" xmlns:xlink="http://www.w3.org/1999/xlink" version="1.1"><path d="M0 136L20 142.3C40 148.7 80 161.3 120 146C160 130.7 200 87.3 240 64.8C280 42.3 320 40.7 360 47.8C400 55 440 71 480 77.3C520 83.7 560 80.3 600 79.5C640 78.7 680 80.3 720 96.5C760 112.7 800 143.3 840 153.2C880 163 920 152 940 146.5L960 141L960 0L940 0C920 0 880 0 840 0C800 0 760 0 720 0C680 0 640 0 600 0C560 0 520 0 480 0C440 0 400 0 360 0C320 0 280 0 240 0C200 0 160 0 120 0C80 0 40 0 20 0L0 0Z" fill="#abc3f0"></path><path d="M0 255L20 248.7C40 242.3 80 229.7 120 210.7C160 191.7 200 166.3 240 156.5C280 146.7 320 152.3 360 166.8C400 181.3 440 204.7 480 201.8C520 199 560 170 600 166.3C640 162.7 680 184.3 720 197C760 209.7 800 213.3 840 220.5C880 227.7 920 238.3 940 243.7L960 249L960 139L940 144.5C920 150 880 161 840 151.2C800 141.3 760 110.7 720 94.5C680 78.3 640 76.7 600 77.5C560 78.3 520 81.7 480 75.3C440 69 400 53 360 45.8C320 38.7 280 40.3 240 62.8C200 85.3 160 128.7 120 144C80 159.3 40 146.7 20 140.3L0 134Z" fill="#8fb2eb"></path><path d="M0 449L20 434.7C40 420.3 80 391.7 120 394.3C160 397 200 431 240 442.7C280 454.3 320 443.7 360 434.7C400 425.7 440 418.3 480 408.5C520 398.7 560 386.3 600 389.2C640 392 680 410 720 420.7C760 431.3 800 434.7 840 440C880 445.3 920 452.7 940 456.3L960 460L960 247L940 241.7C920 236.3 880 225.7 840 218.5C800 211.3 760 207.7 720 195C680 182.3 640 160.7 600 164.3C560 168 520 197 480 199.8C440 202.7 400 179.3 360 164.8C320 150.3 280 144.7 240 154.5C200 164.3 160 189.7 120 208.7C80 227.7 40 240.3 20 246.7L0 253Z" fill="#749fe0"></path><path d="M0 541L20 541C40 541 80 541 120 541C160 541 200 541 240 541C280 541 320 541 360 541C400 541 440 541 480 541C520 541 560 541 600 541C640 541 680 541 720 541C760 541 800 541 840 541C880 541 920 541 940 541L960 541L960 458L940 454.3C920 450.7 880 443.3 840 438C800 432.7 760 429.3 720 418.7C680 408 640 390 600 387.2C560 384.3 520 396.7 480 406.5C440 416.3 400 423.7 360 432.7C320 441.7 280 452.3 240 440.7C200 429 160 395 120 392.3C80 389.7 40 418.3 20 432.7L0 447Z" fill="#5f8acf"></path></svg>