<svg id="visual" viewBox="0 0 960 540" width="960" height="540" xmlns="http://www.w3.org/2000/svg" xmlns:xlink="http://www.w3.org/1999/xlink" version="1.1"><path d="M0 260L20 250.2C40 240.3 80 220.7 120 213.5C160 206.3 200 211.7 240 205.3C280 199 320 181 360 172C400 163 440 163 480 153.2C520 143.3 560 123.7 600 115.5C640 107.3 680 110.7 720 122.3C760 134 800 154 840 147.8C880 141.7 920 109.3 940 93.2L960 77L960 0L940 0C920 0 880 0 840 0C800 0 760 0 720 0C680 0 640 0 600 0C560 0 520 0 480 0C440 0 400 0 360 0C320 0 280 0 240 0C200 0 160 0 120 0C80 0 40 0 20 0L0 0Z" fill="#abc3f0"></path><path d="M0 341L20 327.5C40 314 80 287 120 286.2C160 285.3 200 310.7 240 310.7C280 310.7 320 285.3 360 267.3C400 249.3 440 238.7 480 227.8C520 217 560 206 600 207.8C640 209.7 680 224.3 720 230.7C760 237 800 235 840 229.5C880 224 920 215 940 210.5L960 206L960 75L940 91.2C920 107.3 880 139.7 840 145.8C800 152 760 132 720 120.3C680 108.7 640 105.3 600 113.5C560 121.7 520 141.3 480 151.2C440 161 400 161 360 170C320 179 280 197 240 203.3C200 209.7 160 204.3 120 211.5C80 218.7 40 238.3 20 248.2L0 258Z" fill="#8fb2eb"></path><path d="M0 449L20 431C40 413 80 377 120 374.3C160 371.7 200 402.3 240 397.8C280 393.3 320 353.7 360 342C400 330.3 440 346.7 480 353C520 359.3 560 355.7 600 353.8C640 352 680 352 720 360.2C760 368.3 800 384.7 840 382C880 379.3 920 357.7 940 346.8L960 336L960 204L940 208.5C920 213 880 222 840 227.5C800 233 760 235 720 228.7C680 222.3 640 207.7 600 205.8C560 204 520 215 480 225.8C440 236.7 400 247.3 360 265.3C320 283.3 280 308.7 240 308.7C200 308.7 160 283.3 120 284.2C80 285 40 312 20 325.5L0 339Z" fill="#749fe0"></path><path d="M0 541L20 541C40 541 80 541 120 541C160 541 200 541 240 541C280 541 320 541 360 541C400 541 440 541 480 541C520 541 560 541 600 541C640 541 680 541 720 541C760 541 800 541 840 541C880 541 920 541 940 541L960 541L960 334L940 344.8C920 355.7 880 377.3 840 380C800 382.7 760 366.3 720 358.2C680 350 640 350 600 351.8C560 353.7 520 357.3 480 351C440 344.7 400 328.3 360 340C320 351.7 280 391.3 240 395.8C200 400.3 160 369.7 120 372.3C80 375 40 411 20 429L0 447Z" fill="#5f8acf"></path></svg>